<svg width="42" height="43" viewBox="0 0 42 43" fill="none" xmlns="http://www.w3.org/2000/svg">
<path d="M32.1813 13.1035H9.81866C9.36731 13.1035 9 13.4865 9 13.9572V27.4696C9 27.9402 9.36731 28.323 9.81866 28.323H32.1813C32.6327 28.323 33 27.9402 33 27.4696V13.9572C33 13.4865 32.6327 13.1035 32.1813 13.1035V13.1035ZM10.4077 15.2066L17.1346 19.8687L10.4077 25.9746V15.2066ZM21 20.785L12.0344 14.5714H29.9656L21 20.785ZM18.3505 20.7111L20.5468 22.2334C20.6845 22.3288 20.8422 22.3765 21 22.3765C21.1577 22.3765 21.3155 22.3286 21.4532 22.2334L23.6495 20.7111L30.4184 26.8552H11.5816L18.3505 20.7111ZM24.8654 19.8685L31.5923 15.2064V25.9746L24.8654 19.8685Z" fill="black"/>
<circle cx="21" cy="21.1035" r="19.8" stroke="#040404" stroke-width="2.4"/>
</svg>
