<svg width="41" height="42" viewBox="0 0 41 42" fill="none" xmlns="http://www.w3.org/2000/svg">
<path d="M40.9994 19.6721C40.8767 14.308 38.676 9.30918 34.8021 5.59679C30.9339 1.8897 25.8529 -0.0958525 20.4997 0.00362863C15.1443 -0.096791 10.0657 1.89002 6.19755 5.59679C2.32373 9.30918 0.122944 14.308 0.000312834 19.6718L0 19.6887V19.7056C0.028155 25.1724 2.36909 30.3695 6.43249 34.0121V38.9683C6.43249 39.9303 7.10414 40.7684 8.02951 40.9611C8.16653 40.9896 8.30449 41.0036 8.44182 41.0036C8.81409 41.0036 9.18011 40.8998 9.50233 40.6983L13.4856 38.21C15.7321 38.9965 18.0762 39.395 20.4593 39.395H20.4894C20.6211 39.3975 20.7518 39.3988 20.8832 39.3988C26.0972 39.3985 31.0265 37.4201 34.8021 33.8019C38.676 30.0895 40.8767 25.091 40.9994 19.7269L41 19.6993L40.9994 19.6721ZM33.1382 32.0657C29.8134 35.2519 25.4734 36.994 20.882 36.994C20.7628 36.994 20.6433 36.9928 20.5235 36.9906L20.5103 36.9903H20.4975C18.2817 36.9947 16.0994 36.6096 14.0171 35.8459C13.5019 35.657 12.9407 35.7149 12.4777 36.0042L8.83724 38.2782V33.7193C8.83724 33.2109 8.61607 32.727 8.23066 32.3916C4.55736 29.1985 2.43479 24.577 2.40507 19.71C2.51675 14.9931 4.45413 10.5984 7.86151 7.33301C11.2727 4.06421 15.7546 2.3161 20.4759 2.40838L20.4997 2.4087L20.5235 2.40838C25.2479 2.31516 29.727 4.06421 33.1382 7.33301C36.5424 10.5956 38.4795 14.9868 38.5943 19.6993C38.4798 24.4122 36.5427 28.8031 33.1382 32.0657Z" fill="black"/>
<path d="M31.5989 13.1103L23.9654 17.2723L19.3927 13.3512C18.6016 12.673 17.4047 12.719 16.6683 13.4557L7.01704 23.1069C6.63914 23.4873 6.43173 23.9916 6.43361 24.5275C6.43517 25.0637 6.64539 25.567 7.02549 25.9446C7.41309 26.3297 7.92019 26.5306 8.43574 26.5306C8.76297 26.5306 9.09332 26.4499 9.39896 26.284L17.0327 22.1221L21.6101 26.0447C22.4013 26.723 23.5982 26.677 24.3346 25.9402L33.9874 16.2875C34.6831 15.5851 34.7598 14.4611 34.1666 13.6709C33.5732 12.8769 32.4695 12.6361 31.5989 13.1103ZM22.8949 23.9788L18.2584 20.0055C17.9343 19.7277 17.5245 19.5844 17.1122 19.5844C16.8244 19.5844 16.5353 19.6542 16.2738 19.7968L10.6763 22.8485L18.1076 15.4171L22.7388 19.3886C23.2894 19.8606 24.0871 19.9448 24.7244 19.5975L30.3357 16.538L22.8949 23.9788Z" fill="black"/>
</svg>
