<svg width="42" height="43" viewBox="0 0 42 43" fill="none" xmlns="http://www.w3.org/2000/svg">
<path d="M33.7854 11.4508C33.5307 11.1385 33.1084 11.0226 32.7329 11.1616L8.88317 19.8391C8.4067 20.0135 8.07226 20.4363 8.01017 20.9425C7.94868 21.4464 8.16926 21.9353 8.58305 22.2167L11.9921 24.5598C12.3224 24.7869 12.7471 24.8112 13.1008 24.6233L20.4958 20.6971L14.7323 25.0299C14.4618 25.2334 14.3001 25.558 14.3001 25.8979V29.9114C14.3001 30.3254 14.5256 30.7047 14.8886 30.9016C15.2522 31.0985 15.6914 31.079 16.0368 30.8497L18.6268 29.1199L21.1738 30.8684C21.397 31.0224 21.6628 31.1035 21.931 31.1035C22.0216 31.1035 22.1127 31.0941 22.2023 31.0754C22.56 31.0003 22.8764 30.7778 23.0706 30.465L33.861 12.5509C34.071 12.2059 34.0409 11.7646 33.7854 11.4508ZM21.874 29.4918L19.2364 27.681C19.0529 27.5548 18.8414 27.4916 18.6302 27.4916C18.4235 27.4916 18.2166 27.5522 18.0355 27.6732L15.8243 29.1499V26.1244L26.0014 18.4734C26.4558 18.1317 26.5703 17.5098 26.2674 17.0269C25.9643 16.544 25.3575 16.3808 24.8558 16.6472L12.6287 23.139L9.74526 21.1572L31.7075 13.1666L21.874 29.4918Z" fill="black"/>
<circle cx="21" cy="21.1035" r="19.8" stroke="#040404" stroke-width="2.4"/>
</svg>
