<svg width="42" height="43" viewBox="0 0 42 43" fill="none" xmlns="http://www.w3.org/2000/svg">
<path d="M35.3976 5.98359C31.6184 2.12733 26.595 0.00390625 21.2502 0.00390625H21.2483C18.6049 0.00422744 16.0288 0.52649 13.5921 1.55656C11.1552 2.58663 8.97192 4.07601 7.1025 5.98359C3.32367 9.83953 1.24272 14.9664 1.24272 20.4197C1.24272 23.6718 2.01171 26.9036 3.46878 29.7832L0.105768 39.5867C-0.131255 40.2782 0.0365182 41.0298 0.544558 41.5479C0.899935 41.9108 1.36768 42.1035 1.84865 42.1035C2.05483 42.1035 2.26321 42.0682 2.46655 41.9956L12.074 38.5643C14.8959 40.0511 18.0631 40.8358 21.2502 40.8358C26.5944 40.8358 31.6184 38.7121 35.3976 34.8561C39.1764 31.0002 41.2577 25.8733 41.2577 20.42C41.2577 14.9664 39.1767 9.83953 35.3976 5.98359ZM33.6865 33.1101C30.3647 36.5 25.9478 38.3664 21.2502 38.3664C18.3763 38.3664 15.5214 37.6412 12.9937 36.2684C12.5354 36.0198 11.9937 35.9771 11.5074 36.1508L2.7788 39.268L5.83397 30.3613C6.00426 29.8644 5.96208 29.3116 5.71845 28.8443C4.37343 26.2658 3.66236 23.3525 3.66236 20.4197C3.66236 15.6262 5.49181 11.1192 8.81359 7.7296C12.1351 4.34036 16.5513 2.47357 21.2486 2.47293H21.2502C25.9481 2.47293 30.3647 4.33972 33.6865 7.7296C37.0086 11.1192 38.838 15.6259 38.838 20.4197C38.838 25.2135 37.0086 29.7205 33.6865 33.1101Z" fill="black"/>
<path d="M28.6856 22.2438C27.7652 21.3046 26.2675 21.3046 25.3471 22.2438L24.3405 23.271C21.8409 21.8812 19.8182 19.8172 18.4558 17.2666L19.4625 16.2394C20.3832 15.3002 20.3832 13.772 19.4625 12.8328L16.7498 10.0647C15.8294 9.12556 14.3317 9.12556 13.4113 10.0647L11.2413 12.279C9.99827 13.5474 9.93626 15.728 11.0666 18.4193C12.0481 20.756 13.8441 23.3243 16.124 25.6507C18.4039 27.9771 20.9208 29.8099 23.2108 30.8113C24.4639 31.3593 25.6037 31.6326 26.5886 31.6326C27.6767 31.6326 28.5757 31.2989 29.2282 30.6331L31.3983 28.4184V28.4188C31.8443 27.9636 32.0898 27.3588 32.0898 26.7155C32.0898 26.0718 31.8443 25.467 31.3983 25.0122L28.6856 22.2438ZM27.5172 28.8871C27.1624 29.2491 26.0714 29.3759 24.1642 28.5421C22.1503 27.6614 19.9025 26.0143 17.8351 23.9047C15.7677 21.7951 14.1539 19.5018 13.2908 17.4468C12.4733 15.5006 12.5976 14.3871 12.9524 14.0251L15.0809 11.8531L17.7098 14.5361L16.4498 15.8221C15.8801 16.4035 15.7425 17.2852 16.108 18.0162C17.7646 21.331 20.3574 23.9766 23.6058 25.6671C24.3225 26.04 25.1866 25.9 25.7563 25.3183L27.0164 24.0325L29.6456 26.7155L27.5172 28.8871Z" fill="black"/>
</svg>
