<svg width="18" height="18" viewBox="0 0 18 18" fill="none" xmlns="http://www.w3.org/2000/svg">
<path d="M13.1209 0.552734H5.19886C2.50856 0.552734 0.319824 2.67191 0.319824 5.27657V12.9465C0.319824 15.5513 2.50856 17.6703 5.19886 17.6703H13.1209C15.8115 17.6703 18.0002 15.5512 18.0002 12.9465V5.27657C18.0003 2.67191 15.8115 0.552734 13.1209 0.552734ZM16.4316 12.9465C16.4316 14.7138 14.9465 16.1516 13.1211 16.1516H5.19886C3.37354 16.1517 1.88851 14.7138 1.88851 12.9465V5.27657C1.88851 3.50935 3.37354 2.07149 5.19886 2.07149H13.1209C14.9464 2.07149 16.4315 3.50935 16.4315 5.27657V12.9465H16.4316Z" fill="white"/>
<path d="M9.16027 4.70117C6.64818 4.70117 4.60449 6.67981 4.60449 9.11194C4.60449 11.544 6.64818 13.5225 9.16027 13.5225C11.6724 13.5225 13.7161 11.544 13.7161 9.11194C13.7161 6.67981 11.6724 4.70117 9.16027 4.70117ZM9.16027 12.0037C7.51326 12.0037 6.17318 10.7064 6.17318 9.11184C6.17318 7.51715 7.51315 6.21983 9.16027 6.21983C10.8074 6.21983 12.1474 7.51715 12.1474 9.11184C12.1474 10.7064 10.8073 12.0037 9.16027 12.0037Z" fill="white"/>
<path d="M13.9067 3.41309C13.6045 3.41309 13.3076 3.53155 13.0941 3.73911C12.8796 3.94566 12.7563 4.23322 12.7563 4.52684C12.7563 4.81956 12.8798 5.10701 13.0941 5.31457C13.3075 5.52112 13.6045 5.6406 13.9067 5.6406C14.21 5.6406 14.506 5.52112 14.7203 5.31457C14.9347 5.10701 15.0571 4.81946 15.0571 4.52684C15.0571 4.23322 14.9347 3.94566 14.7203 3.73911C14.507 3.53155 14.21 3.41309 13.9067 3.41309Z" fill="white"/>
</svg>
