<svg width="76" height="69" viewBox="0 0 76 69" fill="none" xmlns="http://www.w3.org/2000/svg">
<path d="M9.28836 42.3542V51.256H15.1248C16.22 51.256 17.1148 51.1173 17.8099 50.8387C18.5047 50.5613 19.0483 50.2012 19.4406 49.7598C19.8331 49.3186 20.1026 48.82 20.2501 48.2639C20.3969 47.7085 20.4705 47.1441 20.4705 46.5721C20.4705 45.9183 20.3849 45.3296 20.2132 44.8062C20.0413 44.2831 19.747 43.8423 19.3304 43.482C18.9133 43.1227 18.3619 42.8447 17.6751 42.6487C16.9885 42.4522 16.1218 42.3542 15.0757 42.3542H9.28836ZM9.28836 36.8121H13.6044C14.5196 36.8121 15.3455 36.7469 16.0812 36.6158C16.8168 36.4852 17.4421 36.2563 17.9572 35.9294C18.4721 35.6024 18.8642 35.1529 19.1341 34.5806C19.404 34.0084 19.5388 33.2894 19.5388 32.4227C19.5388 31.5729 19.4321 30.8655 19.2198 30.3013C19.0072 29.7375 18.6805 29.2837 18.2391 28.9403C17.7977 28.5971 17.2376 28.3519 16.5595 28.2048C15.8808 28.0575 15.0757 27.984 14.1438 27.984H9.28836V36.8121ZM1 57.5088V21.78H14.1438C16.6123 21.78 18.7129 22.0091 20.446 22.4666C22.1786 22.9245 23.593 23.57 24.6886 24.4036C25.7836 25.2375 26.5804 26.2513 27.0794 27.4445C27.5781 28.638 27.8274 29.9704 27.8274 31.4416C27.8274 32.2429 27.7129 33.0152 27.484 33.7589C27.2548 34.5033 26.8953 35.2022 26.405 35.8556C25.9146 36.5097 25.285 37.1026 24.5167 37.6336C23.7482 38.165 22.8249 38.6266 21.7457 39.0193C24.0997 39.5914 25.841 40.519 26.969 41.8024C28.097 43.0858 28.661 44.733 28.661 46.7434C28.661 48.2639 28.3667 49.6783 27.7783 50.9862C27.1898 52.2942 26.327 53.4343 25.1913 54.4067C24.0545 55.38 22.653 56.1396 20.9854 56.6873C19.318 57.235 17.4136 57.5088 15.272 57.5088H1Z" fill="black"/>
<path d="M39.3816 57.5088H31.0439V21.78H39.3816V57.5088Z" fill="black"/>
<path d="M61.5973 51.5265C62.7412 51.5265 63.7553 51.4279 64.6379 51.2318C65.5208 51.036 66.3543 50.7745 67.1393 50.4474V45.0275H63.6076C63.0848 45.0275 62.6764 44.8888 62.3819 44.6108C62.0877 44.3333 61.9403 43.9816 61.9403 43.5567V38.9954H74.6429V54.0764C73.7273 54.747 72.7749 55.3232 71.7864 55.8051C70.7969 56.2878 69.742 56.6842 68.623 56.9948C67.5025 57.3053 66.3091 57.5342 65.0424 57.6813C63.7753 57.8281 62.4143 57.9019 60.9599 57.9019C58.3436 57.9019 55.9242 57.4399 53.7012 56.5164C51.4778 55.5931 49.5525 54.3182 47.9257 52.6908C46.2989 51.0645 45.0236 49.135 44.1005 46.9039C43.1768 44.6719 42.7148 42.2486 42.7148 39.6327C42.7148 36.9683 43.1564 34.5198 44.0392 32.2884C44.922 30.0569 46.1848 28.132 47.8277 26.5136C49.4711 24.8949 51.4572 23.6363 53.7866 22.7368C56.1163 21.8382 58.7198 21.3882 61.5973 21.3882C63.0848 21.3882 64.4825 21.5109 65.7905 21.7563C67.0982 22.0015 68.3036 22.3368 69.4076 22.7615C70.5105 23.1868 71.5204 23.6933 72.4358 24.282C73.3513 24.8704 74.1683 25.508 74.8883 26.1948L72.4848 29.8485C72.2559 30.1917 71.9822 30.4616 71.6636 30.6577C71.3446 30.8537 70.9973 30.9521 70.6213 30.9521C70.1309 30.9521 69.6237 30.7887 69.1008 30.4616C68.4468 30.0693 67.8296 29.7301 67.2495 29.444C66.6692 29.158 66.0763 28.925 65.4719 28.7449C64.8668 28.5653 64.2293 28.4345 63.5588 28.3524C62.8882 28.271 62.1368 28.23 61.3027 28.23C59.7498 28.23 58.3519 28.5038 57.1095 29.0513C55.867 29.5994 54.8084 30.3718 53.9342 31.3688C53.0594 32.3662 52.385 33.5637 51.911 34.9614C51.4364 36.3591 51.1997 37.9165 51.1997 39.6327C51.1997 41.5294 51.4613 43.2131 51.9842 44.6845C52.5076 46.1555 53.2311 47.3988 54.155 48.4116C55.0779 49.4257 56.1735 50.1981 57.4409 50.7293C58.7072 51.2605 60.0927 51.5265 61.5973 51.5265Z" fill="black"/>
<path d="M14.2759 9.1425C14.2759 5.08718 11.4842 1.79143 7.43648 1.79143H1.85309V16.494H7.43648C11.4842 16.494 14.2759 13.1982 14.2759 9.1425ZM15.1133 9.1425C15.1133 13.6326 11.9264 17.2852 7.43648 17.2852H1.38784H1.23263C1.08537 17.2852 1 17.1996 1 17.0525V1.23285C1 1.08579 1.08537 1.00042 1.23263 1.00042H1.85309H7.43648C11.9264 1.00042 15.1133 4.65277 15.1133 9.1425Z" fill="black"/>
<path d="M14.2759 9.1425C14.2759 5.08718 11.4842 1.79143 7.43648 1.79143H1.85309V16.494H7.43648C11.4842 16.494 14.2759 13.1982 14.2759 9.1425ZM15.1133 9.1425C15.1133 13.6326 11.9264 17.2852 7.43648 17.2852H1.38784H1.23263C1.08537 17.2852 1 17.1996 1 17.0525V1.23285C1 1.08579 1.08537 1.00042 1.23263 1.00042H1.85309H7.43648C11.9264 1.00042 15.1133 4.65277 15.1133 9.1425Z" fill="black" stroke="black" stroke-width="0.271622" stroke-miterlimit="10"/>
<path d="M18.3536 9.67022H22.8511C24.9837 9.67022 26.7285 7.89439 26.7285 5.73073C26.7285 3.55969 24.9837 1.79181 22.8511 1.79181H18.3536V9.67022ZM29.4979 16.9963C29.628 17.1474 29.5693 17.2852 29.3696 17.2852H28.8718C28.7536 17.2852 28.6638 17.2491 28.5827 17.1569L22.6797 10.4612H18.3536V17.0525C18.3536 17.1998 18.2682 17.2852 18.121 17.2852H17.7331C17.5859 17.2852 17.5005 17.1998 17.5005 17.0525V1.23305C17.5005 1.08579 17.5859 1.00042 17.7331 1.00042H18.3536H22.8511C25.4565 1.00042 27.5814 3.12509 27.5814 5.73073C27.5814 8.05213 25.8843 10.0022 23.664 10.3906L29.4977 16.9959L29.4979 16.9963Z" fill="black"/>
<path d="M18.3536 9.67022H22.8511C24.9837 9.67022 26.7285 7.89439 26.7285 5.73073C26.7285 3.55969 24.9837 1.79181 22.8511 1.79181H18.3536V9.67022ZM29.4979 16.9963C29.628 17.1474 29.5693 17.2852 29.3696 17.2852H28.8718C28.7536 17.2852 28.6638 17.2491 28.5827 17.1569L22.6797 10.4612H18.3536V17.0525C18.3536 17.1998 18.2682 17.2852 18.121 17.2852H17.7331C17.5859 17.2852 17.5005 17.1998 17.5005 17.0525V1.23305C17.5005 1.08579 17.5859 1.00042 17.7331 1.00042H18.3536H22.8511C25.4565 1.00042 27.5814 3.12509 27.5814 5.73073C27.5814 8.05213 25.8843 10.0022 23.664 10.3906L29.4977 16.9959L29.4979 16.9963Z" fill="black" stroke="black" stroke-width="0.271622" stroke-miterlimit="10"/>
<path d="M40.8331 16.7268V17.0525C40.8331 17.1998 40.7477 17.2852 40.6007 17.2852H32.3808H32.2258C32.0783 17.2852 31.9932 17.1998 31.9932 17.0525V1.23305C31.9932 1.08598 32.0783 1.00042 32.2258 1.00042H32.8459H40.4843C40.6313 1.00042 40.7167 1.08598 40.7167 1.23305V1.559C40.7167 1.70606 40.6313 1.79162 40.4843 1.79162H32.8459V8.67744H39.9028C40.0499 8.67744 40.1352 8.763 40.1352 8.91007V9.23601C40.1352 9.38308 40.0499 9.46845 39.9028 9.46845H32.8459V16.4942H40.6007C40.7477 16.4942 40.8331 16.5795 40.8331 16.7268Z" fill="black"/>
<path d="M40.8331 16.7268V17.0525C40.8331 17.1998 40.7477 17.2852 40.6007 17.2852H32.3808H32.2258C32.0783 17.2852 31.9932 17.1998 31.9932 17.0525V1.23305C31.9932 1.08598 32.0783 1.00042 32.2258 1.00042H32.8459H40.4843C40.6313 1.00042 40.7167 1.08598 40.7167 1.23305V1.559C40.7167 1.70606 40.6313 1.79162 40.4843 1.79162H32.8459V8.67744H39.9028C40.0499 8.67744 40.1352 8.763 40.1352 8.91007V9.23601C40.1352 9.38308 40.0499 9.46845 39.9028 9.46845H32.8459V16.4942H40.6007C40.7477 16.4942 40.8331 16.5795 40.8331 16.7268Z" fill="black" stroke="black" stroke-width="0.271622" stroke-miterlimit="10"/>
<path d="M54.2174 12.1977L50.2483 2.00077L46.2791 12.1977H54.2174ZM56.9901 17.0166C57.0505 17.1794 56.9794 17.2852 56.8052 17.2852H56.3933C56.2631 17.2852 56.1729 17.2194 56.1254 17.1001L54.5249 12.9891H45.9712L44.3707 17.1001C44.3232 17.2194 44.233 17.2852 44.1032 17.2852H43.6911C43.5167 17.2852 43.4457 17.1794 43.506 17.0168L49.712 1.18532C49.7595 1.0662 49.8497 1.00004 49.9795 1.00004H50.5162C50.646 1.00004 50.7366 1.0662 50.7837 1.18532L56.9897 17.0168L56.9901 17.0166Z" fill="black"/>
<path d="M54.2174 12.1977L50.2483 2.00077L46.2791 12.1977H54.2174ZM56.9901 17.0166C57.0505 17.1794 56.9794 17.2852 56.8052 17.2852H56.3933C56.2631 17.2852 56.1729 17.2194 56.1254 17.1001L54.5249 12.9891H45.9712L44.3707 17.1001C44.3232 17.2194 44.233 17.2852 44.1032 17.2852H43.6911C43.5167 17.2852 43.4457 17.1794 43.506 17.0168L49.712 1.18532C49.7595 1.0662 49.8497 1.00004 49.9795 1.00004H50.5162C50.646 1.00004 50.7366 1.0662 50.7837 1.18532L56.9897 17.0168L56.9901 17.0166Z" fill="black" stroke="black" stroke-width="0.271622" stroke-miterlimit="10"/>
<path d="M74.084 1.00042C74.2354 1.00042 74.317 1.08172 74.317 1.23305V17.0525C74.317 17.2039 74.2354 17.2852 74.084 17.2852H73.6966C73.5454 17.2852 73.4639 17.2039 73.4639 17.0525V2.35272L67.522 14.1433C67.463 14.267 67.3806 14.3152 67.2517 14.3152H66.8032C66.6747 14.3152 66.5919 14.267 66.5333 14.1433L60.5914 2.35272V17.0525C60.5914 17.2039 60.5095 17.2852 60.3584 17.2852H59.9709C59.8198 17.2852 59.7383 17.2039 59.7383 17.0525V1.23305C59.7383 1.08172 59.8198 1.00042 59.9709 1.00042H60.3584H60.637C60.7658 1.00042 60.8482 1.04854 60.9074 1.17232L67.0277 13.315L73.1483 1.17232C73.2069 1.04854 73.2895 1.00042 73.4182 1.00042H73.8332H74.0844H74.084Z" fill="black"/>
<path d="M74.084 1.00042C74.2354 1.00042 74.317 1.08172 74.317 1.23305V17.0525C74.317 17.2039 74.2354 17.2852 74.084 17.2852H73.6966C73.5454 17.2852 73.4639 17.2039 73.4639 17.0525V2.35272L67.522 14.1433C67.463 14.267 67.3806 14.3152 67.2517 14.3152H66.8032C66.6747 14.3152 66.5919 14.267 66.5333 14.1433L60.5914 2.35272V17.0525C60.5914 17.2039 60.5095 17.2852 60.3584 17.2852H59.9709C59.8198 17.2852 59.7383 17.2039 59.7383 17.0525V1.23305C59.7383 1.08172 59.8198 1.00042 59.9709 1.00042H60.3584H60.637C60.7658 1.00042 60.8482 1.04854 60.9074 1.17232L67.0277 13.315L73.1483 1.17232C73.2069 1.04854 73.2895 1.00042 73.4182 1.00042H73.8332H74.0844H74.084Z" fill="black" stroke="black" stroke-width="0.271622" stroke-miterlimit="10"/>
<path d="M1.07334 61.4266H1.19499C1.24136 61.4266 1.26813 61.4534 1.26813 61.4995V66.4706C1.26813 66.517 1.24136 66.5439 1.19499 66.5439H1.07334C1.02697 66.5439 1 66.517 1 66.4706V61.4995C1 61.4534 1.02697 61.4266 1.07334 61.4266Z" fill="black"/>
<path d="M5.85692 64.716C5.85692 63.7825 5.13091 63.054 4.20255 63.054C3.27399 63.054 2.54779 63.7825 2.54779 64.716C2.54779 65.6494 3.27399 66.3779 4.20255 66.3779C5.13091 66.3779 5.85692 65.6494 5.85692 64.716ZM6.04221 61.4264C6.08838 61.4264 6.11535 61.4532 6.11535 61.4996V66.4706C6.11535 66.5168 6.08838 66.5438 6.04221 66.5438H5.93026C5.88409 66.5438 5.85692 66.5168 5.85692 66.4706V65.5607C5.56784 66.1971 4.95087 66.6216 4.19033 66.6216C3.13992 66.6216 2.28955 65.7933 2.28955 64.7162C2.28955 63.6392 3.13992 62.8105 4.19033 62.8105C4.95087 62.8105 5.56784 63.2352 5.85692 63.8716V61.4996C5.85692 61.4534 5.88409 61.4266 5.93026 61.4266H6.04221V61.4264Z" fill="black"/>
<path d="M7.32492 64.6112H10.4059C10.3424 63.6475 9.70064 63.054 8.89664 63.054C8.00417 63.054 7.36973 63.6966 7.32492 64.6112ZM8.89664 62.8103C10.0052 62.8103 10.6632 63.7292 10.6632 64.7307V64.7844C10.6608 64.8318 10.6329 64.8551 10.5875 64.8551H10.4098H7.32686C7.38642 65.77 8.03637 66.3779 8.91837 66.3779C9.54136 66.3779 10.0309 66.0793 10.2297 65.6344C10.2493 65.5995 10.2751 65.5811 10.3161 65.5811H10.4459C10.5006 65.5811 10.5287 65.6098 10.511 65.6534C10.2796 66.2347 9.676 66.6216 8.91604 66.6216C7.82218 66.6216 7.06396 65.8199 7.06396 64.7162C7.06396 63.6415 7.79773 62.8103 8.89664 62.8103Z" fill="black"/>
<path d="M13.8193 65.4936C13.8193 64.8576 13.2567 64.604 12.6472 64.604C11.9626 64.604 11.558 64.9645 11.558 65.4934C11.558 66.0223 11.9626 66.3829 12.6472 66.3829C13.2809 66.3829 13.8193 66.1199 13.8193 65.4936ZM12.7619 62.8103C13.4976 62.8103 14.0775 63.2709 14.0775 64.119V66.4704C14.0775 66.5166 14.0508 66.5438 14.0046 66.5438H13.8924C13.8463 66.5438 13.8193 66.5166 13.8193 66.4704V66.0653C13.5977 66.466 13.1344 66.6216 12.6082 66.6216C11.916 66.6216 11.2998 66.2341 11.2998 65.4934C11.2998 64.7526 11.916 64.3652 12.6082 64.3652C13.1395 64.3652 13.5931 64.5518 13.8193 64.916V64.119C13.8193 63.4124 13.3515 63.0542 12.7617 63.0542C12.1915 63.0542 11.7478 63.3588 11.709 63.9023C11.7016 63.9459 11.6772 63.9729 11.6335 63.9729H11.5214C11.4752 63.9729 11.4459 63.9459 11.4482 63.8972C11.4896 63.2566 12.0064 62.8103 12.7617 62.8103H12.7619Z" fill="black"/>
<path d="M17.6163 65.6395C17.6163 66.2147 17.0948 66.6216 16.2881 66.6216C15.5106 66.6216 15.0014 66.2268 14.9626 65.6567C14.96 65.6078 14.9893 65.5809 15.0355 65.5809H15.1476C15.1915 65.5809 15.2159 65.6078 15.2231 65.6517C15.2598 66.1173 15.6961 66.3779 16.2881 66.3779C16.9047 66.3779 17.3579 66.122 17.3579 65.6395C17.3579 64.4674 15.0334 65.1791 15.0334 63.7924C15.0334 63.2174 15.5302 62.8103 16.2881 62.8103C16.9995 62.8103 17.4822 63.205 17.5212 63.7756C17.5236 63.8243 17.4943 63.8508 17.4481 63.8508H17.336C17.2921 63.8508 17.2679 63.8243 17.2605 63.7802C17.224 63.315 16.8144 63.054 16.2881 63.054C15.7204 63.054 15.2914 63.3097 15.2914 63.7922C15.2914 64.9402 17.6163 64.2288 17.6163 65.6395Z" fill="black"/>
<path d="M18.4849 66.4706V66.1053C18.4849 66.0591 18.5118 66.0319 18.558 66.0319H18.7285C18.7747 66.0319 18.8017 66.0591 18.8017 66.1053V66.4706C18.8017 66.517 18.7747 66.5439 18.7285 66.5439H18.558C18.5118 66.5439 18.4849 66.517 18.4849 66.4706Z" fill="black"/>
<path d="M21.8242 63.9851C21.8242 62.5278 22.9305 61.3484 24.4729 61.3484C25.5222 61.3484 26.435 61.9615 26.787 62.853C26.806 62.9042 26.7809 62.9372 26.7286 62.9372H26.5916C26.5508 62.9372 26.5227 62.919 26.505 62.8817C26.1805 62.1194 25.3844 61.6018 24.4729 61.6018C23.0768 61.6018 22.0923 62.6668 22.0923 63.9851C22.0923 65.3032 23.0768 66.3682 24.4729 66.3682C25.3891 66.3682 26.1805 65.8504 26.505 65.0885C26.5227 65.0508 26.5508 65.0328 26.5916 65.0328H26.7336C26.7858 65.0328 26.8135 65.065 26.7951 65.1098C26.4391 66.0048 25.5301 66.6216 24.4729 66.6216C22.9305 66.6216 21.8242 65.4422 21.8242 63.9851Z" fill="black"/>
<path d="M30.965 64.7162C30.965 63.7825 30.2388 63.054 29.3105 63.054C28.3821 63.054 27.6557 63.7825 27.6557 64.7162C27.6557 65.6494 28.3821 66.3779 29.3105 66.3779C30.2388 66.3779 30.965 65.6494 30.965 64.7162ZM27.3975 64.7162C27.3975 63.639 28.248 62.8105 29.3105 62.8105C30.3729 62.8105 31.2233 63.639 31.2233 64.7162C31.2233 65.7933 30.3729 66.6216 29.3105 66.6216C28.248 66.6216 27.3975 65.7933 27.3975 64.7162Z" fill="black"/>
<path d="M33.712 62.8107C34.392 62.8107 34.9304 63.2639 34.9304 64.1048V66.4708C34.9304 66.5172 34.9038 66.5439 34.8573 66.5439H34.7453C34.699 66.5439 34.6722 66.5172 34.6722 66.4708V64.1048C34.6722 63.4345 34.2653 63.0544 33.6827 63.0544C33.0395 63.0544 32.4352 63.5173 32.4352 64.4823V66.4706C32.4352 66.5172 32.4082 66.5439 32.3618 66.5439H32.2501C32.2037 66.5439 32.1768 66.5172 32.1768 66.4706V62.9616C32.1768 62.9155 32.2037 62.8885 32.2501 62.8885H32.3618C32.4082 62.8885 32.4352 62.9155 32.4352 62.9616V63.6184C32.6967 63.0319 33.2116 62.8105 33.712 62.8105V62.8107Z" fill="black"/>
<path d="M39.3663 65.5555C39.126 66.1953 38.4729 66.6216 37.6897 66.6216C36.5958 66.6216 35.7769 65.7931 35.7769 64.7162C35.7769 63.639 36.5958 62.8105 37.6897 62.8105C38.4729 62.8105 39.1232 63.2368 39.3663 63.8768C39.3871 63.9277 39.3597 63.9607 39.3076 63.9607H39.1896C39.1487 63.9607 39.1203 63.9424 39.1033 63.9048C38.8827 63.3916 38.3443 63.0538 37.6897 63.0538C36.7419 63.0538 36.0351 63.7825 36.0351 64.7162C36.0351 65.6492 36.7419 66.3779 37.6897 66.3779C38.3423 66.3779 38.8803 66.038 39.1031 65.5271C39.1203 65.4895 39.1487 65.4713 39.1896 65.4713H39.3076C39.3597 65.4713 39.3871 65.5042 39.3663 65.5555Z" fill="black"/>
<path d="M40.2639 64.6112H43.3449C43.2814 63.6475 42.6396 63.054 41.8356 63.054C40.9431 63.054 40.3087 63.6966 40.2639 64.6112ZM41.8356 62.8103C42.9442 62.8103 43.6021 63.7292 43.6021 64.7307V64.7844C43.5998 64.8318 43.5719 64.8551 43.5266 64.8551H43.3487H40.2658C40.3254 65.77 40.9753 66.3779 41.8573 66.3779C42.4803 66.3779 42.9698 66.0793 43.1687 65.6344C43.1883 65.5995 43.2141 65.5811 43.255 65.5811H43.385C43.4395 65.5811 43.4677 65.6098 43.45 65.6534C43.2186 66.2347 42.615 66.6216 41.855 66.6216C40.7611 66.6216 40.0029 65.8199 40.0029 64.7162C40.0029 63.6415 40.7367 62.8103 41.8358 62.8103H41.8356Z" fill="black"/>
<path d="M48.0495 64.7151C48.0495 63.7817 47.3233 63.0532 46.3949 63.0532C45.4666 63.0532 44.7402 63.7817 44.7402 64.7151C44.7402 65.6486 45.4666 66.3769 46.3949 66.3769C47.3233 66.3769 48.0495 65.6486 48.0495 64.7151ZM46.407 62.8095C47.4574 62.8095 48.3077 63.638 48.3077 64.7151C48.3077 65.7923 47.4574 66.6206 46.407 66.6206C45.6462 66.6206 45.0294 66.1961 44.7402 65.5597V67.9315C44.7402 67.9777 44.7134 68.0049 44.667 68.0049H44.5549C44.5087 68.0049 44.4819 67.9777 44.4819 67.9315V62.9605C44.4819 62.9143 44.5087 62.8873 44.5549 62.8873H44.667C44.7134 62.8873 44.7402 62.9143 44.7402 62.9605V63.8704C45.0294 63.234 45.6462 62.8093 46.407 62.8093V62.8095Z" fill="black"/>
<path d="M50.7068 62.9616V63.0592C50.7068 63.1054 50.6796 63.1322 50.6334 63.1322H49.8684V66.4706C49.8684 66.517 49.8415 66.5439 49.7953 66.5439H49.6832C49.6368 66.5439 49.6102 66.517 49.6102 66.4706V63.1322H48.8427C48.7963 63.1322 48.7695 63.1054 48.7695 63.0592V62.9616C48.7695 62.9155 48.7963 62.8885 48.8427 62.8885H49.6102V61.7919C49.6102 61.7455 49.6368 61.719 49.6832 61.719H49.7953C49.8415 61.719 49.8684 61.7455 49.8684 61.7919V62.8885H50.6334C50.6796 62.8885 50.7068 62.9155 50.7068 62.9616Z" fill="black"/>
<path d="M51.2407 66.4706V66.1053C51.2407 66.0591 51.2675 66.0319 51.3137 66.0319H51.4844C51.5306 66.0319 51.5574 66.0591 51.5574 66.1053V66.4706C51.5574 66.517 51.5306 66.5439 51.4844 66.5439H51.3137C51.2675 66.5439 51.2407 66.517 51.2407 66.4706Z" fill="black"/>
<path d="M57.65 66.3684V66.4706C57.65 66.5172 57.623 66.5439 57.5768 66.5439H54.9939H54.9452C54.8987 66.5439 54.8721 66.5172 54.8721 66.4706V61.4995C54.8721 61.4534 54.8987 61.4266 54.9452 61.4266H55.14H57.5404C57.5865 61.4266 57.6137 61.4534 57.6137 61.4995V61.6022C57.6137 61.6483 57.5865 61.6751 57.5404 61.6751H55.14V63.839H57.3576C57.4038 63.839 57.4308 63.8659 57.4308 63.9121V64.0144C57.4308 64.0605 57.4038 64.0875 57.3576 64.0875H55.14V66.2954H57.5768C57.623 66.2954 57.65 66.3222 57.65 66.3684Z" fill="black"/>
<path d="M61.3786 62.9733L59.9369 66.4863C59.9217 66.5259 59.8934 66.5439 59.8527 66.5439H59.7407H59.674C59.6332 66.5439 59.6047 66.5236 59.5894 66.4863L58.1478 62.9733C58.1282 62.9221 58.1527 62.8885 58.2055 62.8885H58.3248C58.3655 62.8885 58.3938 62.9067 58.409 62.9461L59.7632 66.2626L61.1173 62.9461C61.1326 62.9067 61.1609 62.8885 61.2018 62.8885H61.321C61.3737 62.8885 61.3984 62.9221 61.3786 62.9733Z" fill="black"/>
<path d="M62.0518 64.6112H65.1329C65.0693 63.6475 64.4275 63.054 63.6235 63.054C62.731 63.054 62.0968 63.6966 62.0518 64.6112ZM63.6235 62.8103C64.7323 62.8103 65.3902 63.7292 65.3902 64.7307V64.7844C65.3877 64.8318 65.3597 64.8551 65.3145 64.8551H65.1368H62.0539C62.1133 65.77 62.7634 66.3779 63.6454 66.3779C64.2682 66.3779 64.7577 66.0793 64.9566 65.6344C64.9764 65.5995 65.002 65.5811 65.0429 65.5811H65.1729C65.2274 65.5811 65.2556 65.6098 65.2381 65.6534C65.0064 66.2347 64.4029 66.6216 63.6431 66.6216C62.549 66.6216 61.791 65.8199 61.791 64.7162C61.791 63.6415 62.5246 62.8103 63.6237 62.8103H63.6235Z" fill="black"/>
<path d="M67.8062 62.8107C68.4861 62.8107 69.0247 63.2639 69.0247 64.1048V66.4708C69.0247 66.5172 68.9979 66.5439 68.9515 66.5439H68.8394C68.7932 66.5439 68.7664 66.5172 68.7664 66.4708V64.1048C68.7664 63.4345 68.3594 63.0544 67.7769 63.0544C67.1336 63.0544 66.5292 63.5173 66.5292 64.4823V66.4706C66.5292 66.5172 66.5025 66.5439 66.4561 66.5439H66.3441C66.2978 66.5439 66.271 66.5172 66.271 66.4706V62.9616C66.271 62.9155 66.2978 62.8885 66.3441 62.8885H66.4561C66.5025 62.8885 66.5292 62.9155 66.5292 62.9616V63.6184C66.791 63.0319 67.3059 62.8105 67.8062 62.8105V62.8107Z" fill="black"/>
<path d="M71.6619 62.9616V63.0592C71.6619 63.1054 71.6349 63.1322 71.5887 63.1322H70.8237V66.4706C70.8237 66.517 70.7967 66.5439 70.7506 66.5439H70.6384C70.5921 66.5439 70.5655 66.517 70.5655 66.4706V63.1322H69.7978C69.7514 63.1322 69.7246 63.1054 69.7246 63.0592V62.9616C69.7246 62.9155 69.7514 62.8885 69.7978 62.8885H70.5655V61.7919C70.5655 61.7455 70.5921 61.719 70.6384 61.719H70.7506C70.7967 61.719 70.8237 61.7455 70.8237 61.7919V62.8885H71.5887C71.6349 62.8885 71.6619 62.9155 71.6619 62.9616Z" fill="black"/>
<path d="M74.8155 65.6395C74.8155 66.2147 74.294 66.6216 73.4875 66.6216C72.71 66.6216 72.2007 66.2268 72.1618 65.6567C72.1594 65.6078 72.1887 65.5809 72.2351 65.5809H72.3468C72.3909 65.5809 72.4151 65.6078 72.4225 65.6517C72.459 66.1173 72.8955 66.3779 73.4875 66.3779C74.104 66.3779 74.5573 66.122 74.5573 65.6395C74.5573 64.4674 72.2326 65.1791 72.2326 63.7924C72.2326 63.2174 72.7294 62.8103 73.4875 62.8103C74.1989 62.8103 74.6816 63.205 74.7204 63.7756C74.7228 63.8243 74.6937 63.8508 74.6475 63.8508H74.5353C74.4913 63.8508 74.467 63.8243 74.4599 63.7802C74.4232 63.315 74.0138 63.054 73.4875 63.054C72.9198 63.054 72.4908 63.3097 72.4908 63.7922C72.4908 64.9402 74.8155 64.2288 74.8155 65.6395Z" fill="black"/>
<path d="M75.6836 66.4706V66.1053C75.6836 66.0591 75.7104 66.0319 75.7565 66.0319H75.9273C75.9735 66.0319 76.0002 66.0591 76.0002 66.1053V66.4706C76.0002 66.517 75.9735 66.5439 75.9273 66.5439H75.7565C75.7104 66.5439 75.6836 66.517 75.6836 66.4706Z" fill="black"/>
</svg>
